<?xml version="1.0" encoding="UTF-8" standalone="no"?>
<!DOCTYPE svg PUBLIC "-//W3C//DTD SVG 1.1//EN" "http://www.w3.org/Graphics/SVG/1.1/DTD/svg11.dtd">
<svg width="100%" height="100%" viewBox="0 0 24 24" version="1.1" xmlns="http://www.w3.org/2000/svg" xmlns:xlink="http://www.w3.org/1999/xlink" xml:space="preserve" xmlns:serif="http://www.serif.com/" style="fill-rule:evenodd;clip-rule:evenodd;stroke-linecap:round;stroke-linejoin:round;background-color:none;">
    <path d="M10.065,12.493L3.885,13.811C3.389,13.919 2.892,13.603 2.777,13.109L2.24,10.959C2.11,10.425 2.411,9.873 2.931,9.694L16.435,5.254" style="fill:none;fill-rule:nonzero;stroke:rgb(255,0,0);stroke-width:2px;"/>
    <path d="M13.56,11.747L17.892,10.823" style="fill:none;fill-rule:nonzero;stroke:rgb(255,0,0);stroke-width:2px;"/>
    <path d="M16,21L12.895,14.79" style="fill:none;fill-rule:nonzero;stroke:rgb(255,0,0);stroke-width:2px;"/>
    <path d="M16.485,5.94C16.219,4.876 16.876,3.781 17.94,3.515L19.03,3.243C19.562,3.11 20.109,3.438 20.242,3.97L21.757,10.03C21.89,10.562 21.562,11.11 21.03,11.243L19.94,11.515C18.876,11.781 17.781,11.124 17.515,10.06L16.485,5.94Z" style="fill:none;fill-rule:nonzero;stroke:rgb(255,0,0);stroke-width:2px;"/>
    <path d="M6.158,8.633L7.272,13.089" style="fill:none;fill-rule:nonzero;stroke:rgb(255,0,0);stroke-width:2px;"/>
    <path d="M8,21L11.105,14.79" style="fill:none;fill-rule:nonzero;stroke:rgb(255,0,0);stroke-width:2px;"/>
    <circle cx="12" cy="13" r="2" style="fill:none;stroke:rgb(255,0,0);stroke-width:2px;"/>
</svg>
